<?xml version="1.0" encoding="iso-8859-1"?>
<!-- Generator: Adobe Illustrator 21.1.0, SVG Export Plug-In . SVG Version: 6.00 Build 0)  -->
<svg version="1.1" id="Layer_1" xmlns="http://www.w3.org/2000/svg" xmlns:xlink="http://www.w3.org/1999/xlink" x="0px" y="0px"
	 viewBox="0 0 24 24" enable-background="new 0 0 24 24" xml:space="preserve">
<g>
	<path fill="#303C42" d="M22.8251953,10.1207275l-10.5-9c-0.1865234-0.1611328-0.4638672-0.1611328-0.6503906,0l-10.5,9
		C1.015625,10.2564697,0.9584961,10.4771729,1.03125,10.6734619C1.1035156,10.869751,1.2905273,11.0001221,1.5,11.0001221h1.5400391
		l0.847168,10.1660156c0.0854492,1.0283203,0.9614258,1.8339844,1.9931641,1.8339844H8.5h7h2.6196289
		c1.0317383,0,1.9077148-0.8056641,1.9931641-1.8339844l0.847168-10.1660156H22.5
		c0.2094727,0,0.3964844-0.1303711,0.46875-0.3266602C23.0415039,10.4771729,22.984375,10.2564697,22.8251953,10.1207275z"/>
	<path fill="#4E4E4E" d="M8.9526367,22.0001221l-0.5078125-5.074707c-0.1000977-1.0019531,0.2299805-2.0043945,0.9057617-2.7509766
		c0.675293-0.7460938,1.6401367-1.1743164,2.6523438-1.1743164c1.0063477,0,1.9711914,0.4282227,2.6464844,1.1743164
		c0.6757813,0.746582,1.0058594,1.7490234,0.9057617,2.7509766l-0.5078125,5.074707H8.9526367z"/>
	<linearGradient id="SVGID_1_" gradientUnits="userSpaceOnUse" x1="8.6178312" y1="14.9009771" x2="15.3821697" y2="21.6653156">
		<stop  offset="0" style="stop-color:#010101;stop-opacity:0.25"/>
		<stop  offset="1" style="stop-color:#010101;stop-opacity:0"/>
	</linearGradient>
	<path fill="url(#SVGID_1_)" d="M8.9526367,22.0001221l-0.5078125-5.074707
		c-0.1000977-1.0019531,0.2299805-2.0043945,0.9057617-2.7509766c0.675293-0.7460938,1.6401367-1.1743164,2.6523438-1.1743164
		c1.0063477,0,1.9711914,0.4282227,2.6464844,1.1743164c0.6757813,0.746582,1.0058594,1.7490234,0.9057617,2.7509766
		l-0.5078125,5.074707H8.9526367z"/>
	<path opacity="0.1" fill="#010101" d="M9.3720703,18.925415c-0.1000977-1.0019531,0.2299805-2.0043945,0.9057617-2.7509766
		c0.675293-0.7460938,1.6401367-1.1743164,2.6523438-1.1743164c0.9914551,0,1.9398804,0.4190063,2.6135864,1.1448364
		c-0.0878906-0.727356-0.3952026-1.4190674-0.8943481-1.97052c-0.675293-0.7460938-1.6401367-1.1743164-2.6464844-1.1743164
		c-1.012207,0-1.9770508,0.4282227-2.6523438,1.1743164c-0.6757813,0.746582-1.0058594,1.7490234-0.9057617,2.7509766
		l0.5078125,5.074707h0.7271118L9.3720703,18.925415z"/>
	<path fill="#8D6E63" d="M20.5,10.0001221c-0.2602539,0-0.4765625,0.1992188-0.4980469,0.4584961l-0.8852539,10.6245117
		c-0.0429688,0.5141602-0.480957,0.9169922-0.9970703,0.9169922h-2.0670776l0.4977417-4.9750977
		c0.1279297-1.2827148-0.2944336-2.565918-1.1591797-3.5214844s-2.0996094-1.503418-3.394043-1.503418
		c-1.2885742,0-2.5234375,0.5478516-3.3881836,1.503418s-1.2871094,2.2387695-1.1591797,3.5214844l0.4977417,4.9750977H5.8803711
		c-0.5161133,0-0.9541016-0.402832-0.9970703-0.9169922L3.9980469,10.4586182
		C3.9765625,10.1993408,3.7602539,10.0001221,3.5,10.0001221H2.8515625L12,2.1588135l9.1484375,7.8413086H20.5z"/>
	<polygon opacity="0.1" fill="#010101" points="11.9973755,12.0001831 11.999939,12.0004272 11.9984131,12.0001221 	"/>
	<path opacity="0.1" fill="#010101" d="M12,2.1588135l7.413147,7.8413086h-0.8248901l-0.8214722,11.0830078
		c-0.03479,0.5141602-0.3897095,0.9169922-0.8079224,0.9169922h1.1607666c0.5161133,0,0.9541016-0.402832,0.9970703-0.9169922
		l0.8852539-10.6245117c0.0214844-0.2592773,0.237793-0.4584961,0.4980469-0.4584961h0.6484375L12,2.1588135z"/>
	<polygon opacity="0.1" fill="#010101" points="11.9973145,12.0001221 12.000061,12.0004272 11.9984131,12.0001221 	"/>
	<path fill="#303C42" d="M11.2734375,6.4840088c-0.3129883,0.2265625-0.5024414,0.5756836-0.4995117,0.9257813
		c-0.5600586,0.2680664-0.8618164,0.8598633-0.7514648,1.4741211c0.0952148,0.5249023,0.5097656,0.9589844,1.0322266,1.0800781
		c0.1035156,0.0239258,0.2075195,0.0356445,0.3105469,0.0356445c0.2216797,0,0.4389648-0.0546875,0.6347656-0.1611328
		c0.2861328,0.15625,0.6210938,0.2011719,0.9453125,0.1254883c0.5224609-0.1210938,0.9370117-0.5551758,1.0322266-1.0805664
		c0.1103516-0.6137695-0.1914063-1.2055664-0.7314453-1.440918c-0.0170898-0.3828125-0.206543-0.7319336-0.519043-0.9580078
		c-0.2094727-0.1523438-0.4599609-0.2324219-0.7246094-0.2324219c0,0-0.0014648,0-0.0024414,0
		C11.703125,6.2886963,11.4829102,6.3321533,11.2734375,6.4840088z"/>
	<path fill="#5E4137" d="M12.140625,7.2945557c0.0878906,0.0634766,0.1044922,0.1479492,0.1064453,0.1918945
		c0.015625,0.355957,0.2255859,0.6723633,0.5473633,0.8256836c0.1147461,0.0546875,0.2353516,0.1904297,0.1987305,0.3930664
		c-0.0239258,0.1337891-0.1391602,0.253418-0.2734375,0.2841797c-0.0952148,0.0224609-0.1801758,0.0092773-0.2568359-0.0380859
		c-0.1313477-0.0810547-0.2817383-0.1289063-0.4902344-0.137207c-0.1533203,0.0083008-0.3037109,0.0556641-0.4350586,0.1367188
		c-0.0771484,0.0473633-0.1591797,0.0634766-0.2573242,0.0385742c-0.1342773-0.0307617-0.2495117-0.1503906-0.2734375-0.2836914
		c-0.0366211-0.203125,0.0839844-0.3388672,0.1977539-0.3930664c0.3227539-0.1538086,0.5327148-0.4702148,0.5483398-0.8251953
		c0.0019531-0.0449219,0.0185547-0.1293945,0.1069336-0.1933594c0.0478516-0.034668,0.1010742-0.0419922,0.1376953-0.0419922
		c0.0014648-0.0004883,0.0019531-0.0004883,0.0039063,0C12.0493164,7.2408447,12.0917969,7.2593994,12.140625,7.2945557z"/>
	<path fill="#303C42" d="M13.2700195,6.7633057c-0.0219727,0.2441406,0.0610352,0.4804688,0.2280273,0.6469727
		c0.1489258,0.1499023,0.3515625,0.2324219,0.5693359,0.2324219c0.0004883,0,0.0004883,0,0.0004883,0
		c0.2397461,0,0.4785156-0.1010742,0.6552734-0.2783203c0.1582031-0.1582031,0.2558594-0.3632813,0.2749023-0.5771484
		c0.0219727-0.2446289-0.0610352-0.480957-0.2285156-0.6479492c-0.1494141-0.1494141-0.3515625-0.2319336-0.5698242-0.2319336
		h-0.0004883c-0.2397461,0.0004883-0.4780273,0.1020508-0.6542969,0.2788086
		C13.3867188,6.3443604,13.2890625,6.5489502,13.2700195,6.7633057z"/>
	<path fill="#303C42" d="M12.6225586,6.3892822c0.0825195,0.027832,0.1665039,0.0410156,0.2495117,0.0410156
		c0.3569336,0,0.6992188-0.2441406,0.8286133-0.6245117c0.1586914-0.46875-0.0649414-0.9707031-0.5-1.1196289
		C12.7636719,4.5386963,12.28125,4.800415,12.1230469,5.2686768c-0.0722656,0.2114258-0.0693359,0.4389648,0.0078125,0.6401367
		C12.2192383,6.1373291,12.3979492,6.3126221,12.6225586,6.3892822z"/>
	<path fill="#303C42" d="M10.4599609,6.1925049C10.109375,5.8424072,9.5605469,5.8223877,9.2348633,6.1461182
		C9.0849609,6.2955322,9.0029297,6.4981689,9.0029297,6.7164307C9.003418,6.9561768,9.1049805,7.194458,9.2822266,7.3712158
		c0.1835938,0.1835938,0.421875,0.2768555,0.6542969,0.2768555c0.2099609,0,0.4150391-0.0761719,0.5698242-0.2304688
		C10.831543,7.0928955,10.8105469,6.5430908,10.4599609,6.1925049z"/>
	<path fill="#303C42" d="M11.1328125,6.4366455c0.0830078,0,0.1669922-0.0131836,0.2495117-0.0410156
		c0.2006836-0.0678711,0.3642578-0.2133789,0.4604492-0.409668c0.105957-0.2148438,0.1201172-0.4736328,0.0395508-0.7094727
		c-0.0805664-0.2373047-0.25-0.434082-0.4648438-0.5395508c-0.1953125-0.0961914-0.4121094-0.1113281-0.6132813-0.0439453
		c-0.2006836,0.0678711-0.3642578,0.2133789-0.4604492,0.409668c-0.105957,0.2148438-0.1201172,0.4736328-0.0390625,0.7104492
		C10.434082,6.1929932,10.7763672,6.4366455,11.1328125,6.4366455z"/>
	<path opacity="0.15" fill="#FFFFFF" d="M12,2.1588135l-7.413147,7.8413086h0.8248901l0.8214722,11.0830078
		c0.03479,0.5141602,0.3897095,0.9169922,0.8079224,0.9169922H5.8803711c-0.5161133,0-0.9541016-0.402832-0.9970703-0.9169922
		L3.9980469,10.4586182C3.9765625,10.1993408,3.7602539,10.0001221,3.5,10.0001221H2.8515625L12,2.1588135z"/>
	<linearGradient id="SVGID_2_" gradientUnits="userSpaceOnUse" x1="1.7720166" y1="8.7336187" x2="21.7093334" y2="18.0305424">
		<stop  offset="0" style="stop-color:#FFFFFF;stop-opacity:0.2"/>
		<stop  offset="1" style="stop-color:#FFFFFF;stop-opacity:0"/>
	</linearGradient>
	<path fill="url(#SVGID_2_)" d="M22.8251953,10.1207275l-10.5-9c-0.1865234-0.1611328-0.4638672-0.1611328-0.6503906,0l-10.5,9
		C1.015625,10.2564697,0.9584961,10.4771729,1.03125,10.6734619C1.1035156,10.869751,1.2905273,11.0001221,1.5,11.0001221h1.5400391
		l0.847168,10.1660156c0.0854492,1.0283203,0.9614258,1.8339844,1.9931641,1.8339844H8.5h7h2.6196289
		c1.0317383,0,1.9077148-0.8056641,1.9931641-1.8339844l0.847168-10.1660156H22.5
		c0.2094727,0,0.3964844-0.1303711,0.46875-0.3266602C23.0415039,10.4771729,22.984375,10.2564697,22.8251953,10.1207275z"/>
</g>
<g>
</g>
<g>
</g>
<g>
</g>
<g>
</g>
<g>
</g>
<g>
</g>
<g>
</g>
<g>
</g>
<g>
</g>
<g>
</g>
<g>
</g>
<g>
</g>
<g>
</g>
<g>
</g>
<g>
</g>
</svg>
