<?xml version="1.0" ?><svg id="Icons" viewBox="0 0 60 60" xmlns="http://www.w3.org/2000/svg"><defs><style>.cls-1{fill:#d6dbe3;}.cls-2{fill:#8991a0;}.cls-3{fill:#b9bfcc;}.cls-4{fill:#31b5a5;}.cls-5{fill:#262626;}</style></defs><path class="cls-1" d="M16.622,48.248a.5.5,0,0,1-.38-.824l1.391-1.63-2.654,1.531a.5.5,0,0,1-.6-.787l1.376-1.371-1.858,1.072a.5.5,0,0,1-.626-.761l1.809-2.068-2.353,1.359a.5.5,0,0,1-.587-.8l.7-.639-.377.217a.5.5,0,0,1-.627-.105.5.5,0,0,1-.018-.635l2.141-2.742a.39.39,0,0,1-.036-.054.5.5,0,0,1,.183-.683l.866-.5a.5.5,0,0,1,.644.74L14.184,41.4l2.132-1.231a.5.5,0,0,1,.587.8l-.7.636.984-.569a.5.5,0,0,1,.626.762l-1.809,2.068,2.551-1.472a.5.5,0,0,1,.6.787l-1.375,1.37,1.861-1.074a.5.5,0,0,1,.63.756l-1.391,1.631,1.076-.62a.5.5,0,0,1,.5.865l-3.592,2.074A.489.489,0,0,1,16.622,48.248Z"/><path class="cls-1" d="M41.43,31.943a.5.5,0,0,1-.336-.87l1.285-1.168L39.69,31.457a.5.5,0,0,1-.548-.834L41.183,29.1,37.8,31.058a.5.5,0,0,1-.564-.823l4.381-3.517-6.528,3.768a.5.5,0,0,1-.533-.844l.753-.517-1.787,1.031a.5.5,0,0,1-.534-.844l1.819-1.253-3,1.734a.5.5,0,0,1-.548-.834L36.8,24.842l-7.619,4.4a.5.5,0,0,1-.541-.839L34.2,24.423l-7.455,4.3a.5.5,0,0,1-.525-.85l1.688-1.116-2.691,1.553a.5.5,0,0,1-.535-.842l6.091-4.236-6.383,3.685a.5.5,0,0,1-.526-.85l2.143-1.418L23.8,25.927a.5.5,0,0,1-.543-.838L30.431,19.9l-6.934,4a.5.5,0,0,1-.533-.844l4.1-2.822a.491.491,0,0,1-.516-.21.5.5,0,0,1,.109-.674l4.508-3.483a.487.487,0,0,1-.254-.181.5.5,0,0,1,.066-.664l3.171-2.9a.505.505,0,0,1,.246-.5l.866-.5a.5.5,0,0,1,.587.8l-.8.729,1.107-.638a.5.5,0,0,1,.556.828l-3.551,2.743,4.165-2.4a.5.5,0,0,1,.533.844l-3.841,2.64L38.33,14.18a.5.5,0,0,1,.543.838l-7.177,5.2,8.034-4.638a.5.5,0,0,1,.526.85l-2.137,1.414,2.458-1.419a.5.5,0,0,1,.535.843L35.021,21.5,41.767,17.6a.5.5,0,0,1,.525.85L40.6,19.574l1.991-1.149a.5.5,0,0,1,.541.839l-5.559,3.975,6.237-3.6a.5.5,0,0,1,.547.834L38.812,24.59l6.309-3.642a.5.5,0,0,1,.534.845l-1.818,1.253,2.145-1.238a.5.5,0,0,1,.534.844l-.757.52,1.008-.582a.5.5,0,0,1,.563.822L42.949,26.93l5.175-2.988a.5.5,0,0,1,.549.834l-2.511,1.869a.5.5,0,0,1,.334.87l-3.534,3.212a.5.5,0,0,1-.237.545l-1.045.6A.489.489,0,0,1,41.43,31.943Z"/><path class="cls-2" d="M44.773,21.233a.5.5,0,0,1-.337-.868l1.608-1.476-2.1,1.209a.5.5,0,0,1-.552-.831l4.12-3.123L42.741,18.9a.5.5,0,0,1-.53-.846l2.567-1.735-2.931,1.693a.5.5,0,0,1-.529-.848l2.06-1.383-2.389,1.379a.5.5,0,0,1-.537-.842l4.87-3.421-5.455,3.15a.5.5,0,0,1-.524-.851l.481-.316a.5.5,0,0,1-.386-.9l3.54-2.413a.494.494,0,0,1-.359-.226.5.5,0,0,1,.132-.678l2.9-2.046a.473.473,0,0,1-.133-.124.5.5,0,0,1,.061-.663l4.291-3.995a.5.5,0,0,1,.243-.515l.868-.5a.5.5,0,0,1,.59.8L49.478,5.56l2.694-1.555a.5.5,0,0,1,.539.841l-.485.342.719-.415a.5.5,0,0,1,.532.846l-2.4,1.634,2.76-1.593a.5.5,0,0,1,.524.851l-.137.091.355-.206a.5.5,0,0,1,.537.842L50.246,10.66,55.7,7.511a.5.5,0,0,1,.528.847L54.166,9.744l2.4-1.382a.5.5,0,0,1,.53.847l-2.985,2.016a.511.511,0,0,1,.489.218.5.5,0,0,1-.116.675l-4.7,3.568a.5.5,0,0,1,.293.866l-3.81,3.5a.5.5,0,0,1-.238.541l-1,.574A.491.491,0,0,1,44.773,21.233Z"/><path class="cls-3" d="M56.435,11.508a.5.5,0,0,1-.368-.839l.179-.194-.635.366a.5.5,0,0,1-.664-.713l1.139-1.682L54.267,9.5a.5.5,0,0,1-.624-.765l.693-.78-1.024.591a.5.5,0,0,1-.63-.757l.806-.946L52.3,7.526a.5.5,0,0,1-.631-.756l.81-.952-1.2.691a.5.5,0,0,1-.619-.771l.6-.653-.89.514a.5.5,0,0,1-.665-.712l1.143-1.7L49.265,4.1a.5.5,0,0,1-.653-.73l.636-.863a.5.5,0,0,1-.235-.933L50.709.6a.5.5,0,0,1,.652.729l-.525.714,1.382-.8a.5.5,0,0,1,.665.712l-1.144,1.7L53.571,2.6a.5.5,0,0,1,.619.77l-.6.655.891-.515a.5.5,0,0,1,.631.757l-.808.95,1.194-.69a.5.5,0,0,1,.631.757l-.807.948,1.193-.689a.5.5,0,0,1,.624.765l-.694.78,1.024-.591a.5.5,0,0,1,.616.092.5.5,0,0,1,.048.621L57,8.888l1.6-.924a.5.5,0,0,1,.617.771l-.345.374a.5.5,0,0,1,.238.933l-2.421,1.4A.493.493,0,0,1,56.435,11.508Z"/><path class="cls-3" d="M50.289,29.565a.5.5,0,0,1-.425-.763l1.188-1.908-1.979,1.141a.5.5,0,0,1-.666-.709l1.155-1.738L47.7,26.662a.5.5,0,0,1-.632-.756l.825-.972-1.219.7a.5.5,0,0,1-.618-.771l.591-.644-.879.507a.5.5,0,0,1-.665-.712l1.143-1.69L44.42,23.382a.5.5,0,0,1-.648-.736l1.017-1.332-1.545.892a.5.5,0,0,1-.61-.779L43.046,21l-.64.369a.5.5,0,0,1-.666-.709L42.9,18.921,41.034,20a.5.5,0,0,1-.654-.727L41.454,17.8l-1.662.959a.5.5,0,0,1-.6-.788l.179-.177-.344.2a.5.5,0,0,1-.66-.718l1.117-1.6-1.758,1.015a.5.5,0,0,1-.607-.784l.313-.317-.512.295a.5.5,0,0,1-.606-.784l.3-.307-.5.288a.5.5,0,0,1-.622-.766l.662-.737-.978.565a.5.5,0,0,1-.628-.106.5.5,0,0,1-.015-.637l.968-1.228-1.455.84a.5.5,0,0,1-.643-.742l.966-1.226-1.453.839a.5.5,0,0,1-.671-.7l1.175-1.828L31.5,10.458a.5.5,0,0,1-.674-.7l1.13-1.812a.5.5,0,0,1-.391-.912l1.61-.93a.5.5,0,0,1,.674.7L32.73,8.591,34.7,7.452a.5.5,0,0,1,.671.7L34.2,9.983l1.923-1.11a.5.5,0,0,1,.643.742L35.8,10.841,37.254,10a.5.5,0,0,1,.642.742l-.967,1.23,1.456-.841a.5.5,0,0,1,.622.766l-.662.737.978-.565a.5.5,0,0,1,.606.784l-.3.307.5-.288a.5.5,0,0,1,.606.783l-.312.318.512-.295a.5.5,0,0,1,.66.718L40.475,16l1.758-1.015a.5.5,0,0,1,.6.789l-.179.176.344-.2a.5.5,0,0,1,.654.728L42.58,17.948l1.661-.959a.5.5,0,0,1,.666.709l-1.154,1.739,1.861-1.075a.5.5,0,0,1,.611.78l-.413.427.64-.369a.5.5,0,0,1,.648.737l-1.017,1.331,1.545-.892a.5.5,0,0,1,.664.713l-1.143,1.688,1.827-1.053a.5.5,0,0,1,.618.77L49,23.14l.882-.509a.5.5,0,0,1,.632.756l-.824.971,1.217-.7a.5.5,0,0,1,.666.709L50.42,26.1l1.861-1.075a.5.5,0,0,1,.675.7l-1.187,1.908,1.3-.749a.5.5,0,1,1,.5.865L50.539,29.5A.489.489,0,0,1,50.289,29.565Z"/><path class="cls-4" d="M22.807,48.152a.5.5,0,0,1-.288-.909l.47-.331-1.3.748a.5.5,0,0,1-.541-.839l8.16-5.854-9.355,5.4a.5.5,0,0,1-.521-.852l5.458-3.537L18.98,45.391a.5.5,0,0,1-.518-.855l2.922-1.863-3.247,1.874a.5.5,0,0,1-.525-.851l7.413-4.878-8,4.619a.5.5,0,0,1-.516-.856L16.8,42.4l-.518.3a.5.5,0,0,1-.517-.855l1.082-.684-1.334.77a.5.5,0,0,1-.525-.851l6.7-4.4-7.246,4.183A.5.5,0,0,1,13.928,40l2.406-1.541-2.641,1.524a.5.5,0,0,1-.542-.839l7.953-5.71-8.32,4.8a.5.5,0,0,1-.545-.836l6.706-4.9L12.6,36.167a.5.5,0,0,1-.537-.842l3.637-2.55-2.159,1.246a.5.5,0,0,1-.554-.83l4.738-3.622a.5.5,0,0,1-.44-.856l4.2-3.9a.5.5,0,0,1,.244-.518l.877-.506a.5.5,0,0,1,.59.8l-1.985,1.844,2.554-1.474a.5.5,0,0,1,.553.83l-4.578,3.5,5.328-3.075a.5.5,0,0,1,.537.842l-3.636,2.548L26.482,27a.5.5,0,0,1,.545.836l-6.708,4.9,9.01-5.2a.5.5,0,0,1,.542.839l-7.953,5.711L34.708,26.7a.5.5,0,0,1,.52.854l-2.4,1.534L36.286,27.1a.5.5,0,0,1,.525.85l-6.706,4.4,7.719-4.456a.5.5,0,0,1,.518.855l-1.077.681,1.394-.8a.5.5,0,0,1,.517.856l-.3.188.483-.279a.5.5,0,0,1,.525.85l-7.411,4.877,8.006-4.623a.5.5,0,0,1,.519.855l-2.932,1.87L41.215,31.4a.5.5,0,0,1,.521.853l-5.448,3.531,1.284-.741a.5.5,0,0,1,.541.839l-8.158,5.853,2.187-1.261a.5.5,0,0,1,.538.841L29.788,43.35a.5.5,0,0,1-.015.857l-6.716,3.878A.491.491,0,0,1,22.807,48.152Z"/><path class="cls-5" d="M12.869,32.95a5.509,5.509,0,0,0-.048,7.116c.066.077.14.148.207.225a4.265,4.265,0,0,0-1.577,2.738,3.306,3.306,0,0,0,.735,2.308,11.26,11.26,0,0,0,.828.851L2.005,57.2.4,58.8a.393.393,0,0,0,.179.667A1.04,1.04,0,0,0,1.6,59.2l11.29-11.291.921-.92.26.26a3.885,3.885,0,0,0,4.132.744,4.568,4.568,0,0,0,1.521-1.044,6,6,0,0,0,8.137-.61c1.275-1.261,2.536-2.536,3.8-3.8L44.519,29.677l2.7-2.7q1.18,1.18,2.362,2.362c1.257.96,2.561-.1,3.453-.991.733-.733,1.7-1.478.83-2.529-.956-1.152-2.163-2.164-3.22-3.221l-3.229-3.229,8.123-8.125a3.339,3.339,0,0,0,3.293-.589.994.994,0,0,0,.212-.165,2.3,2.3,0,0,0-.066-3.29c-.532-.539-1.071-1.071-1.607-1.607C55.994,4.216,54.626,2.83,53.24,1.462a3.111,3.111,0,0,0-3.787-.311,2.347,2.347,0,0,0-.83,3.437L40.63,12.582Q39.287,11.241,37.947,9.9C36.852,8.8,35.8,7.54,34.6,6.556a2.226,2.226,0,0,0-2.845.3c-.715.644-2.333,1.828-1.686,2.925a5.235,5.235,0,0,0,.861.912l1.977,1.977.111.11L20.936,24.864,14.1,31.7C13.688,32.112,13.248,32.509,12.869,32.95Zm5.039,14.208a1.768,1.768,0,0,1-1.153.186,2.52,2.52,0,0,1-1.345-.7l-1.1-1.1A5.151,5.151,0,0,1,13.174,44.2a2.748,2.748,0,0,1,.189-2.691,3.336,3.336,0,0,1,.372-.448c1.663,1.789,3.485,3.465,5.225,5.175A4.441,4.441,0,0,1,17.908,47.158ZM41.685,30.807c-1.256-.93-2.059-2.351-3.442-3.149a7.575,7.575,0,0,0-5.621-.727,20.494,20.494,0,0,1-2.405.673,6.064,6.064,0,0,1-3.611-.807,7.69,7.69,0,0,1-1.925-1.722,7.024,7.024,0,0,0-1.091-1.16l2.873-2.873,1.952,1.951.369.37c.069.068.3.049.369.043a2.1,2.1,0,0,0,.564-.127c.113-.043.613-.229.433-.408l-2.6-2.6-.162-.161L29.808,17.7l.362-.362,1.952,1.952.37.37c.068.068.3.05.368.044a2.067,2.067,0,0,0,.565-.127c.113-.043.613-.229.432-.41l-2.6-2.6-.162-.162,2.748-2.748L46.341,26.151ZM49.418,5.5,54.5,10.58l-7.907,7.907L44.4,16.294l4.93-4.931.739-.738c.207-.207.172-.437-.134-.5a1.267,1.267,0,0,0-1.024.274l-5.193,5.193-.01.01L41.511,13.41Q45.465,9.456,49.418,5.5ZM49.843,2a1.108,1.108,0,0,1,.824-.652,1.7,1.7,0,0,1,1.11.534c.086.081.167.168.251.251l3.723,3.724L57.5,7.6a2.008,2.008,0,0,1,.219,2.929c-.557.515-1.158.12-1.644-.325a.67.67,0,0,0-.1-.132L50.079,4.182A1.931,1.931,0,0,1,49.843,2Zm-17.2,8.529a13.3,13.3,0,0,1-.979-.979c-.79-.981.406-1.762,1.059-2.415.036-.037.225-.277.284-.284l.007,0a1.407,1.407,0,0,0,.184.176c.016.013.029.029.043.042.109.106.215.216.322.323l1.421,1.421,4.923,4.923a.642.642,0,0,0,.126.18l5.931,5.932a.489.489,0,0,0,.137.082l.025.025,5.33,5.331a12.19,12.19,0,0,1,1.054,1.054c.447.573.245.993-.163,1.446-.247.275-.527.526-.789.788a1.867,1.867,0,0,1-.274.274A.478.478,0,0,0,51.1,29a.423.423,0,0,0-.158-.173l-3-3a.671.671,0,0,0-.125-.179L34.469,12.3c-.03-.03-.071-.033-.106-.053Q33.5,11.389,32.646,10.53ZM15.325,32.18l0,0L17.3,34.15l.369.37c.224.224.7.12.958.007.161-.072.622-.337.389-.569l-2.6-2.6-.14-.139,2.751-2.751,1.977,1.977.37.369c.229.23.7.141.961.021.168-.077.621-.355.383-.593q-1.3-1.3-2.6-2.6l-.137-.136,2.653-2.653c.093.093.187.184.276.281.275.3.531.613.8.913A6.479,6.479,0,0,0,25.8,27.606a7.771,7.771,0,0,0,5.65.287,7.723,7.723,0,0,1,2.49-.536A6.335,6.335,0,0,1,37.381,28.5c1.306.944,2.089,2.3,3.463,3.147L27.658,44.834c-.382.383-.753.782-1.15,1.15a4.241,4.241,0,0,1-5.954-.147c-2.02-2.019-4.069-4.012-6.06-6.06a4.655,4.655,0,0,1-.156-6.61C14.657,32.829,15,32.509,15.325,32.18Z"/></svg>